# xmcd
#
# Track frame offsets:
#	150
#	12847
#	31401
#	50679
#	69498
#	92837
#	109053
#	129620
#	153321
#	171307
#	196901
#	221991
#
# Disc length: 3106 seconds
#
# Revision: 0
# Processed by: cddbd v1.5.2PL0 Copyright (c) Steve Scherf et al.
# Submitted via: audiograbber 1.83.01
#
DISCID=aa0c200c
DTITLE=Young, Neil - Heart of Gold Live 10CD09
DYEAR=1988
DGENRE=POP-ROCK-JAZZ
TTITLE0=Teach your children - Graham Nash
TTITLE1=Crow on the cradle - Jackson Browne, Graham Nash
TTITLE2=Children of the canyon - Jackson Browne
TTITLE3=Rock me on the water
TTITLE4=This old house
TTITLE5=Love the one you're with
TTITLE6=Name of love
TTITLE7=Tracks in the dust - Crosby and Nash
TTITLE8=Don't say goodbye - Crosby, Nash and Young
TTITLE9=Southern cross
TTITLE10=Long time gone
TTITLE11=My country tis of thee - Crosby, Nash and JD Souther
EXTD=
EXTT0=
EXTT1=
EXTT2=
EXTT3=
EXTT4=
EXTT5=
EXTT6=
EXTT7=
EXTT8=
EXTT9=
EXTT10=
EXTT11=
PLAYORDER=
